<?xml version="1.0" encoding="utf-8"?>
<?xml-stylesheet type="text/xsl" href="rss1.xsl"?>
<rss version="2.0" xmlns:atom="http://www.w3.org/2005/Atom" xmlns:content="http://purl.org/rss/1.0/modules/content/" xmlns:dc="http://purl.org/dc/elements/1.1/" xmlns:media="http://search.yahoo.com/mrss/">
<channel>
 <title>Getty</title>
 <link>http://www.gettyimg.com/</link>
 <atom:link href="http://www.gettyimg.com/" rel="self" type="application/rss+xml" />

 
                <item>
                <title><![CDATA[【Apple Music】WEB-RiP - Reneé Rapp &amp; Megan Thee Stallion - Not My Fault (Explicit) [Apple HD Music Video]]]></title>
                <link><![CDATA[https://sharemania.us/threads/rene%C3%A9-rapp-megan-thee-stallion-not-my-fault-explicit-apple-hd-music-video.242821/]]></link>
                <description><![CDATA[<article>
<blockquote class="messageText SelectQuoteContainer ugc baseHtml">
<span style="font-size: 22px"><b>Reneé Rapp &amp; Megan Thee Stallion - Not My Fault (Explicit) [Apple HD Music Video]</b></span><br>
<br>
<img src="https://imgur.com/jDrH0Zv.jpg" class="bbCodeImage LbImage" alt="[​IMG]" data-url="https://imgur.com/jDrH0Zv.jpg" style=""><br>
<br>
<div class="bbCodeBlock bbCodeCode">
<div class="type">Code:</div>
<pre>General
Format                         : MPEG-4
Codec ID                       : M4V  (isom/iso4/M4V /mp42)
File size                      : 208 MiB
Duration                       : 2 min 51 s
Overall bit rate mode          : Variable
Overall bit rate               : 10.2 Mb/s
Movie name                     : Not My Fault
Performer                      : Reneé Rapp &amp; Megan Thee Stallion
Genre                          : Pop
ContentType                    : Music Video
Recorded date                  : UTC 2024-01-04 08:00:00
Encoded date                   : UTC 2024-03-11 21:07:02
Tagged date                    : UTC 2024-03-11 21:07:02
Copyright                      : ℗ Paramount Pictures/Interscope Records; © 2024 Paramount Pictures/Interscope Records
Cover                          : Yes
Rating                         : Explicit
GenreID                        : 1614
AppleStoreCountry              : Canada
AlbumTitleID                   : 1626560688
AppleStoreCatalogID            : 1724860687

Video
ID                             : 2
Format                         : AVC
Format/Info                    : Advanced Video Codec
Format profile                 : High@L4
Format settings                : CABAC / 4 Ref Frames
Format settings, CABAC         : Yes
Format settings, Reference fra : 4 frames
Codec ID                       : avc1
Codec ID/Info                  : Advanced Video Coding
Duration                       : 2 min 50 s
Source duration                : 2 min 50 s
Bit rate                       : 9 903 kb/s
Maximum bit rate               : 18.9 Mb/s
Width                          : 1 920 pixels
Height                         : 1 080 pixels
Display aspect ratio           : 16:9
Frame rate mode                : Variable
Frame rate                     : 23.976 (23976/1000) FPS
Minimum frame rate             : 11.988 FPS
Maximum frame rate             : 24.000 FPS
Color space                    : YUV
Chroma subsampling             : 4:2:0
Bit depth                      : 8 bits
Scan type                      : Progressive
Bits/(Pixel*Frame)             : 0.199
Stream size                    : 201 MiB (97%)
Source stream size             : 201 MiB (97%)
Title                          : Core Media Video
Language                       : English
Encoded date                   : UTC 2024-02-15 12:58:47
Tagged date                    : UTC 2024-03-11 21:07:11
Color range                    : Limited
Color primaries                : BT.709
Transfer characteristics       : BT.709
Matrix coefficients            : BT.709
mdhd_Duration                  : 170671
Codec configuration box        : avcC

Audio
ID                             : 1
Format                         : AAC LC
Format/Info                    : Advanced Audio Codec Low Complexity
Codec ID                       : mp4a-40-2
Duration                       : 2 min 50 s
Duration_LastFrame             : -7 ms
Bit rate mode                  : Variable
Bit rate                       : 279 kb/s
Maximum bit rate               : 454 kb/s
Channel(s)                     : 2 channels
Channel layout                 : L R
Sampling rate                  : 48.0 kHz
Frame rate                     : 46.875 FPS (1024 SPF)
Compression mode               : Lossy
Stream size                    : 5.67 MiB (3%)
Title                          : Core Media Audio
Encoded date                   : UTC 2024-02-15 12:58:43
Tagged date                    : UTC 2024-03-11 21:07:11

Text
ID                             : 3-CC1
Format                         : EIA-608
Muxing mode                    : Final Cut
Codec ID                       : c608
Duration                       : 2 min 51 s
Duration of the visible conten : 2 min 47 s
Start time                     : 2 s 445 ms
End time                       : 2 min 50 s
End time (commands)            : 2 min 50 s
Bit rate mode                  : Constant
Maximum bit rate               : 1 712 b/s
Frame rate                     : 0.455 FPS
Stream size                    : 0.00 Byte (0%)
Title                          : Core Media Closed Caption
Language                       : English
Forced                         : No
Encoded date                   : UTC 2024-02-15 12:58:47
Tagged date                    : UTC 2024-03-11 21:07:11
Count of events                : 77
Count of PopOn events          : 77
Count of lines                 : 129
Maximum count of lines per eve : 3
Count of frames before first e : 0
Type of the first event        : PopOn
</pre>
</div>
<div class="bbCodeBlock bbCodeVfcHH HiddenContent">
<div class="attribution type">Hidden Content:</div>
<blockquote>You must reply before you can see the hidden data contained here.</blockquote>
</div>
<div class="messageTextEndMarker">&nbsp;</div>
</blockquote>
</article>]]></description>
                <author><![CDATA[Mu$iC @$YLUM]]></author>
                </item>

                </channel></rss>